<svg xmlns="http://www.w3.org/2000/svg" viewBox="0 0 128 128" role="img" aria-label="Логотип мониторинга">
  <defs>
    <linearGradient id="signalGradient" x1="0%" y1="0%" x2="100%" y2="100%">
      <stop offset="0%" stop-color="#16d0ff"/>
      <stop offset="100%" stop-color="#1188ff"/>
    </linearGradient>
    <filter id="signalGlow" x="-50%" y="-50%" width="200%" height="200%">
      <feGaussianBlur stdDeviation="2.5" result="blur"/>
      <feMerge>
        <feMergeNode in="blur"/>
        <feMergeNode in="SourceGraphic"/>
      </feMerge>
    </filter>
  </defs>
  <g fill="none" stroke="url(#signalGradient)" stroke-linecap="round" stroke-linejoin="round" filter="url(#signalGlow)">
    <path d="M16 31c-8 10-12 21-12 33s4 23 12 33" stroke-width="5"/>
    <path d="M31 42c-5 7-8 14-8 22s3 15 8 22" stroke-width="5"/>
    <path d="M112 31c8 10 12 21 12 33s-4 23-12 33" stroke-width="5"/>
    <path d="M97 42c5 7 8 14 8 22s-3 15-8 22" stroke-width="5"/>
    <circle cx="64" cy="40" r="9" stroke-width="5"/>
    <path d="M64 49 39 102h50L64 49Z" stroke-width="5"/>
    <path d="M50 74h28M45 86h38M42 98h44" stroke-width="4"/>
  </g>
</svg>
