<svg width="2400" height="1600" viewBox="0 0 2400 1600" fill="none" xmlns="http://www.w3.org/2000/svg">
  <defs>
    <linearGradient id="base" x1="1200" y1="0" x2="1200" y2="1600" gradientUnits="userSpaceOnUse">
      <stop stop-color="#09203A"/>
      <stop offset="1" stop-color="#041224"/>
    </linearGradient>
    <radialGradient id="topGlow" cx="0" cy="0" r="1" gradientUnits="userSpaceOnUse" gradientTransform="translate(1200 260) rotate(90) scale(480 880)">
      <stop stop-color="#173B62" stop-opacity="0.5"/>
      <stop offset="1" stop-color="#173B62" stop-opacity="0"/>
    </radialGradient>
    <radialGradient id="rightGlow" cx="0" cy="0" r="1" gradientUnits="userSpaceOnUse" gradientTransform="translate(1870 660) rotate(90) scale(700 760)">
      <stop stop-color="#0E2C4D" stop-opacity="0.42"/>
      <stop offset="1" stop-color="#0E2C4D" stop-opacity="0"/>
    </radialGradient>
    <filter id="softNoise" x="-20%" y="-20%" width="140%" height="140%">
      <feTurbulence type="fractalNoise" baseFrequency="0.95" numOctaves="2" stitchTiles="stitch" result="noise"/>
      <feColorMatrix in="noise" type="matrix" values="1 0 0 0 0  0 1 0 0 0  0 0 1 0 0  0 0 0 .06 0"/>
    </filter>
    <filter id="shadow" x="-20%" y="-20%" width="140%" height="140%">
      <feDropShadow dx="0" dy="22" stdDeviation="28" flood-color="#020913" flood-opacity="0.55"/>
    </filter>
    <pattern id="microGrid" width="90" height="90" patternUnits="userSpaceOnUse">
      <path d="M90 0H0V90" stroke="#7FA0C8" stroke-opacity="0.06" stroke-width="1"/>
    </pattern>
  </defs>

  <rect width="2400" height="1600" fill="url(#base)"/>
  <rect width="2400" height="1600" fill="url(#topGlow)"/>
  <rect width="2400" height="1600" fill="url(#rightGlow)"/>
  <rect width="2400" height="1600" fill="url(#microGrid)"/>
  <rect width="2400" height="1600" filter="url(#softNoise)" opacity="0.85"/>

  <path d="M-80 540C200 610 430 780 660 800C850 816 1000 690 1180 722C1400 762 1520 930 1760 980C2010 1032 2220 980 2490 770V1320C2320 1450 2030 1570 1730 1580C1410 1592 1140 1450 860 1390C540 1322 260 1312-80 1360V540Z" fill="#08203B"/>
  <path d="M-40 618C220 690 454 848 684 864C882 876 1032 756 1216 790C1452 834 1572 1002 1818 1048C2046 1090 2244 1042 2440 888" stroke="#113F63" stroke-opacity="0.72" stroke-width="10"/>
  <path d="M-40 662C220 734 456 894 690 908C886 920 1036 802 1218 834C1454 876 1576 1042 1820 1090C2044 1132 2244 1088 2440 934" stroke="#285F84" stroke-opacity="0.3" stroke-width="22"/>

  <g stroke-linecap="round">
    <path d="M60 180L300 230L520 360L820 330L1120 450L1430 420L1710 520L2070 488L2320 310" stroke="#B88A34" stroke-opacity="0.48" stroke-width="4"/>
    <path d="M130 402L410 470L760 612L1010 590L1320 704L1590 684L1920 792L2260 760" stroke="#C18E33" stroke-opacity="0.46" stroke-width="4"/>
    <path d="M40 836L320 786L560 846L830 1006L1130 1002L1440 1108L1720 1260L2050 1330L2330 1286" stroke="#BF8A2D" stroke-opacity="0.42" stroke-width="4"/>
    <path d="M250 70L390 312L536 540L718 720L900 1016L1082 1490" stroke="#D39D43" stroke-opacity="0.34" stroke-width="4"/>
    <path d="M870 60L982 302L1120 504L1326 744L1476 1038L1666 1490" stroke="#D39D43" stroke-opacity="0.36" stroke-width="5"/>
    <path d="M1764 84L1654 240L1504 454L1460 760L1608 1050L1860 1498" stroke="#D39D43" stroke-opacity="0.32" stroke-width="4"/>
  </g>

  <g stroke="#88A6C8" stroke-opacity="0.18" stroke-width="16" stroke-linecap="round">
    <path d="M110 150L390 292L664 456L924 416L1180 528L1440 504L1760 618L2110 590L2320 430"/>
    <path d="M90 500L360 570L662 706L952 658L1242 796L1544 776L1844 906L2250 886"/>
    <path d="M120 938L358 912L570 974L820 1124L1140 1120L1434 1240L1718 1370L2040 1440L2280 1418"/>
    <path d="M290 100L446 356L626 606L814 826L1008 1138L1150 1470"/>
    <path d="M944 104L1040 302L1204 564L1374 760L1530 1090L1676 1488"/>
    <path d="M1994 120L1830 344L1718 622L1760 880L1936 1138L2140 1462"/>
  </g>

  <g filter="url(#shadow)">
    <rect x="286" y="238" width="124" height="80" rx="16" fill="#132A44" fill-opacity="0.96"/>
    <rect x="444" y="270" width="92" height="62" rx="12" fill="#18304B" fill-opacity="0.96"/>
    <rect x="558" y="316" width="136" height="94" rx="18" fill="#142B45" fill-opacity="0.95"/>
    <rect x="720" y="266" width="188" height="120" rx="22" fill="#162F4A" fill-opacity="0.96"/>
    <rect x="982" y="356" width="94" height="62" rx="12" fill="#17314D" fill-opacity="0.95"/>
    <rect x="1120" y="404" width="156" height="96" rx="18" fill="#18314D" fill-opacity="0.95"/>
    <rect x="1314" y="418" width="210" height="126" rx="22" fill="#132B45" fill-opacity="0.95"/>
    <rect x="1544" y="348" width="136" height="90" rx="16" fill="#152B46" fill-opacity="0.95"/>
    <rect x="1706" y="312" width="140" height="90" rx="18" fill="#11263E" fill-opacity="0.95"/>
    <rect x="1874" y="296" width="146" height="92" rx="18" fill="#11273E" fill-opacity="0.95"/>
    <rect x="2040" y="250" width="86" height="86" rx="43" fill="#B7BAC4" fill-opacity="0.82"/>
    <rect x="2146" y="248" width="74" height="74" rx="37" fill="#B7BAC4" fill-opacity="0.78"/>
    <rect x="2246" y="262" width="72" height="72" rx="36" fill="#B7BAC4" fill-opacity="0.75"/>
    <rect x="2078" y="370" width="72" height="72" rx="36" fill="#C3C6CF" fill-opacity="0.74"/>
    <rect x="2186" y="374" width="68" height="68" rx="34" fill="#C3C6CF" fill-opacity="0.74"/>

    <rect x="354" y="530" width="140" height="90" rx="18" fill="#11273E" fill-opacity="0.95"/>
    <rect x="526" y="540" width="176" height="106" rx="18" fill="#152D48" fill-opacity="0.96"/>
    <rect x="734" y="580" width="224" height="132" rx="24" fill="#18324E" fill-opacity="0.97"/>
    <rect x="992" y="586" width="118" height="78" rx="16" fill="#112842" fill-opacity="0.95"/>
    <rect x="1142" y="646" width="170" height="116" rx="20" fill="#17304B" fill-opacity="0.96"/>
    <rect x="1362" y="692" width="186" height="122" rx="22" fill="#1A3551" fill-opacity="0.96"/>
    <rect x="1592" y="666" width="124" height="88" rx="16" fill="#162E48" fill-opacity="0.95"/>
    <rect x="1752" y="664" width="104" height="76" rx="14" fill="#122942" fill-opacity="0.95"/>
    <rect x="1902" y="712" width="140" height="96" rx="18" fill="#132A43" fill-opacity="0.96"/>
    <rect x="2092" y="760" width="142" height="102" rx="18" fill="#112842" fill-opacity="0.96"/>

    <rect x="252" y="860" width="122" height="86" rx="16" fill="#0E233A" fill-opacity="0.94"/>
    <rect x="420" y="918" width="156" height="98" rx="18" fill="#132A44" fill-opacity="0.95"/>
    <rect x="634" y="980" width="146" height="92" rx="18" fill="#122740" fill-opacity="0.95"/>
    <rect x="828" y="1016" width="248" height="152" rx="26" fill="#15304B" fill-opacity="0.97"/>
    <rect x="1118" y="1032" width="136" height="94" rx="18" fill="#16304C" fill-opacity="0.96"/>
    <rect x="1292" y="1112" width="206" height="128" rx="22" fill="#122A44" fill-opacity="0.96"/>
    <rect x="1546" y="1184" width="128" height="92" rx="16" fill="#122A43" fill-opacity="0.96"/>
    <rect x="1734" y="1232" width="172" height="110" rx="20" fill="#17314C" fill-opacity="0.96"/>
    <rect x="1948" y="1282" width="146" height="96" rx="18" fill="#0F243B" fill-opacity="0.95"/>
  </g>

  <g fill="#294E70" fill-opacity="0.28">
    <circle cx="274" cy="170" r="120"/>
    <circle cx="530" cy="196" r="104"/>
    <circle cx="1508" cy="210" r="162"/>
    <circle cx="2188" cy="432" r="144"/>
    <circle cx="1510" cy="918" r="130"/>
    <circle cx="342" cy="1260" r="188"/>
    <circle cx="2170" cy="1220" r="168"/>
  </g>

  <rect width="2400" height="1600" fill="#010B18" fill-opacity="0.22"/>
</svg>
