<svg xmlns="http://www.w3.org/2000/svg" width="512" height="512" viewBox="0 0 512 512" fill="none">
  <g stroke="#F5F7FA" stroke-width="18" stroke-linecap="round" stroke-linejoin="round">
    <rect x="150" y="92" width="170" height="280" rx="18"/>
    <rect x="178" y="138" width="114" height="96" rx="14"/>
    <path d="M235 176c0-16 12-28 21-40 9 12 21 24 21 40 0 13-9 24-21 24s-21-11-21-24z"/>
    <path d="M205 276h62"/>
    <path d="M205 314h62"/>
    <rect x="130" y="372" width="210" height="52" rx="16"/>
    <path d="M320 160h32"/>
    <path d="M352 164h24c18 0 32 14 32 32v108"/>
    <rect x="390" y="202" width="34" height="76" rx="10"/>
    <path d="M407 278v78c0 20-16 36-36 36h-18"/>
  </g>
</svg>
