<svg xmlns="http://www.w3.org/2000/svg" width="512" height="512" viewBox="0 0 512 512" fill="none">
  <g stroke="#F5F7FA" stroke-width="18" stroke-linecap="round" stroke-linejoin="round">
    <rect x="212" y="212" width="88" height="88" rx="20"/>
    <circle cx="256" cy="256" r="12"/>
    <path d="M212 228l-52-52"/>
    <path d="M300 228l52-52"/>
    <path d="M212 284l-52 52"/>
    <path d="M300 284l52 52"/>
    <circle cx="136" cy="136" r="20"/>
    <circle cx="376" cy="136" r="20"/>
    <circle cx="136" cy="376" r="20"/>
    <circle cx="376" cy="376" r="20"/>
    <path d="M136 96c-28 0-50 22-50 50"/>
    <path d="M176 136c0-28-22-50-50-50"/>
    <path d="M376 96c28 0 50 22 50 50"/>
    <path d="M336 136c0-28 22-50 50-50"/>
    <path d="M136 416c-28 0-50-22-50-50"/>
    <path d="M176 376c0 28-22 50-50 50"/>
    <path d="M376 416c28 0 50-22 50-50"/>
    <path d="M336 376c0 28 22 50 50 50"/>
  </g>
</svg>
